# xmcd
#
# Track frame offsets: 
#        150
#        24914
#        36112
#        64954
#        75794
#        100398
#        116634
#        139640
#        149897
#        160905
#        176879
#        202997
#
# Disc length: 3091 seconds
#
# Revision: 0
# Processed by: cddbd v1.5.2PL0 Copyright (c) Steve Scherf et al.
# Submitted via: ExactAudioCopyFreeDBPlugin 1.0
#
DISCID=a40c110c
DTITLE=Willie Phoenix and the Soul Underground - Backstage Rain
DYEAR=2019
DGENRE=Blues
TTITLE0=Boogie Loud
TTITLE1=Drivin' with the Blues
TTITLE2=Back to the Fillmore
TTITLE3=Happy Blues
TTITLE4=It's Gonna Rain
TTITLE5=Tell the World About Love
TTITLE6=Big Whiskey Woman
TTITLE7=White Rabbit Flys an Airplane
TTITLE8=I'm Flying
TTITLE9=Tangerine
TTITLE10=Mama
TTITLE11=The Sun
EXTD=
EXTT0=
EXTT1=
EXTT2=
EXTT3=
EXTT4=
EXTT5=
EXTT6=
EXTT7=
EXTT8=
EXTT9=
EXTT10=
EXTT11=
PLAYORDER=
